<?xml version="1.0" encoding="UTF-8"?>
<svg xmlns="http://www.w3.org/2000/svg" viewBox="0 0 1085 449.5" width="1085" height="449.5">
<defs>
<marker id="arrow" markerWidth="8" markerHeight="6" refX="8" refY="3" orient="auto"><polygon points="0 0, 8 3, 0 6" fill="#888"/></marker>
<marker id="arrow-rev" markerWidth="8" markerHeight="6" refX="0" refY="3" orient="auto"><polygon points="8 0, 0 3, 8 6" fill="#888"/></marker>
</defs>
<g><rect x="825" y="140.66666666666666" width="228" height="98" rx="10" fill="#4CAF5012" stroke="#4CAF5040" stroke-width="1.5"/><text x="833" y="154.66666666666666" font-size="11" font-weight="700" fill="#4CAF50">🔋 Battery</text><g transform="translate(825,140.66666666666666)"><path d="M 0 45.25 L 14 45.25" fill="none" stroke="#2196F3" stroke-width="1.5"/><path d="M 0 42.75 L 14 42.75" fill="none" stroke="#4CAF50" stroke-width="1.5"/></g><g transform="translate(825,140.66666666666666)"><path d="M 74 45.25 L 94 45.25" fill="none" stroke="#2196F3" stroke-width="1.5"/><path d="M 74 42.75 L 94 42.75" fill="none" stroke="#4CAF50" stroke-width="1.5"/></g><g transform="translate(825,140.66666666666666)"><path d="M 0 74 L 14 74" fill="none" stroke="#E91E63" stroke-width="1.5"/></g><g transform="translate(825,140.66666666666666)"><path d="M 74 74 L 84 74 L 84 56 L 94 56" fill="none" stroke="#E91E63" stroke-width="1.5"/></g><g><circle cx="1043" cy="180.66666666666666" r="4" fill="none" stroke="#E91E63" stroke-width="2"/><circle cx="1043" cy="190.66666666666666" r="4" fill="none" stroke="#2196F3" stroke-width="2"/><circle cx="1043" cy="200.66666666666666" r="4" fill="none" stroke="#4CAF50" stroke-width="2"/><rect x="919" y="172.66666666666666" width="120" height="36" rx="6" fill="#4CAF50" stroke="#E91E63" stroke-width="3" opacity="0.85"/><text x="979" y="194.66666666666666" text-anchor="middle" font-size="11" font-weight="600" fill="white">Battery</text></g><g><rect x="839" y="174.66666666666666" width="60" height="20" rx="10" fill="white" stroke="#bbb"/><text x="857" y="188.66666666666666" text-anchor="middle" font-size="12">η</text><line x1="871" y1="177.66666666666666" x2="871" y2="191.66666666666666" stroke="#ddd"/><text x="885" y="188.66666666666666" text-anchor="middle" font-size="12">⚡</text></g><g><rect x="839" y="204.66666666666666" width="60" height="20" rx="10" fill="white" stroke="#bbb"/><text x="857" y="218.66666666666666" text-anchor="middle" font-size="12">⚡</text><line x1="871" y1="207.66666666666666" x2="871" y2="221.66666666666666" stroke="#ddd"/><text x="885" y="218.66666666666666" text-anchor="middle" font-size="12">η</text></g></g>
<g><rect x="513" y="104" width="228" height="98" rx="10" fill="#FF980012" stroke="#FF980040" stroke-width="1.5"/><text x="521" y="118" font-size="11" font-weight="700" fill="#FF9800">🏭 Grid</text><g transform="translate(513,104)"><path d="M 0 45.25 L 14 45.25" fill="none" stroke="#E91E63" stroke-width="1.5"/><path d="M 0 42.75 L 14 42.75" fill="none" stroke="#4CAF50" stroke-width="1.5"/></g><g transform="translate(513,104)"><path d="M 74 45.25 L 94 45.25" fill="none" stroke="#E91E63" stroke-width="1.5"/><path d="M 74 42.75 L 94 42.75" fill="none" stroke="#4CAF50" stroke-width="1.5"/></g><g transform="translate(513,104)"><path d="M 0 74 L 14 74" fill="none" stroke="#2196F3" stroke-width="1.5"/></g><g transform="translate(513,104)"><path d="M 74 74 L 84 74 L 84 56 L 94 56" fill="none" stroke="#2196F3" stroke-width="1.5"/></g><g><circle cx="731" cy="144" r="4" fill="none" stroke="#E91E63" stroke-width="2"/><circle cx="731" cy="154" r="4" fill="none" stroke="#2196F3" stroke-width="2"/><circle cx="731" cy="164" r="4" fill="none" stroke="#4CAF50" stroke-width="2"/><rect x="607" y="136" width="120" height="36" rx="6" fill="#FF9800" stroke="#2196F3" stroke-width="3" opacity="0.85"/><text x="667" y="158" text-anchor="middle" font-size="11" font-weight="600" fill="white">Grid</text></g><g><rect x="527" y="138" width="60" height="20" rx="10" fill="white" stroke="#bbb"/><text x="545" y="152" text-anchor="middle" font-size="12">⚡</text><line x1="559" y1="141" x2="559" y2="155" stroke="#ddd"/><text x="573" y="152" text-anchor="middle" font-size="12">💲</text></g><g><rect x="527" y="168" width="60" height="20" rx="10" fill="white" stroke="#bbb"/><text x="545" y="182" text-anchor="middle" font-size="12">💲</text><line x1="559" y1="171" x2="559" y2="185" stroke="#ddd"/><text x="573" y="182" text-anchor="middle" font-size="12">⚡</text></g></g>
<g><rect x="513" y="227" width="248" height="106.66666666666666" rx="10" fill="#9C27B012" stroke="#9C27B040" stroke-width="1.5"/><text x="521" y="241" font-size="11" font-weight="700" fill="#9C27B0">🔄 Inverter</text><g transform="translate(513,227)"><path d="M 214 52.66666666666666 L 225.25 52.66666666666666 L 225.25 43.91666666666666 L 248 43.91666666666666" fill="none" stroke="#2196F3" stroke-width="1.5"/><path d="M 214 50.16666666666666 L 222.75 50.16666666666666 L 222.75 41.41666666666666 L 248 41.41666666666666" fill="none" stroke="#4CAF50" stroke-width="1.5"/></g><g transform="translate(513,227)"><path d="M 214 64.66666666666666 L 248 64.66666666666666" fill="none" stroke="#E91E63" stroke-width="1.5"/></g><g transform="translate(513,227)"><path d="M 0 44.49999999999999 L 14 44.49999999999999" fill="none" stroke="#E91E63" stroke-width="1.5"/><path d="M 0 41.99999999999999 L 14 41.99999999999999" fill="none" stroke="#2196F3" stroke-width="1.5"/><path d="M 0 39.49999999999999 L 14 39.49999999999999" fill="none" stroke="#4CAF50" stroke-width="1.5"/></g><g transform="translate(513,227)"><path d="M 74 44.49999999999999 L 81.5 44.49999999999999 L 81.5 58.33333333333333 L 94 58.33333333333333" fill="none" stroke="#E91E63" stroke-width="1.5"/><path d="M 74 41.99999999999999 L 84 41.99999999999999 L 84 55.83333333333333 L 94 55.83333333333333" fill="none" stroke="#2196F3" stroke-width="1.5"/><path d="M 74 39.49999999999999 L 86.5 39.49999999999999 L 86.5 53.33333333333333 L 94 53.33333333333333" fill="none" stroke="#4CAF50" stroke-width="1.5"/></g><g transform="translate(513,227)"><path d="M 0 76 L 14 76" fill="none" stroke="#E91E63" stroke-width="1.5"/><path d="M 0 73.5 L 14 73.5" fill="none" stroke="#2196F3" stroke-width="1.5"/><path d="M 0 71 L 14 71" fill="none" stroke="#4CAF50" stroke-width="1.5"/></g><g transform="translate(513,227)"><path d="M 74 76 L 94 76" fill="none" stroke="#E91E63" stroke-width="1.5"/><path d="M 74 73.5 L 94 73.5" fill="none" stroke="#2196F3" stroke-width="1.5"/><path d="M 74 71 L 94 71" fill="none" stroke="#4CAF50" stroke-width="1.5"/></g><g transform="translate(513,227)"><path d="M 214 77.91666666666666 L 224 77.91666666666666 L 224 86.66666666666666 L 248 86.66666666666666" fill="none" stroke="#4CAF50" stroke-width="1.5"/></g><g><rect x="607" y="265.16666666666663" width="120" height="53" rx="6" fill="#9C27B0" stroke="rgba(0,0,0,0.15)" stroke-width="1" opacity="0.85"/><text x="667" y="295.66666666666663" text-anchor="middle" font-size="11" font-weight="600" fill="white">Inverter</text></g><g><rect x="527" y="259" width="60" height="20" rx="10" fill="white" stroke="#bbb"/><text x="545" y="273" text-anchor="middle" font-size="12">η</text><line x1="559" y1="262" x2="559" y2="276" stroke="#ddd"/><text x="573" y="273" text-anchor="middle" font-size="12">⚡</text></g><g><rect x="527" y="290.5" width="60" height="20" rx="10" fill="white" stroke="#bbb"/><text x="545" y="304.5" text-anchor="middle" font-size="12">⚡</text><line x1="559" y1="293.5" x2="559" y2="307.5" stroke="#ddd"/><text x="573" y="304.5" text-anchor="middle" font-size="12">η</text></g></g>
<g><rect x="264" y="335.5" width="197" height="82" rx="10" fill="#E91E6312" stroke="#E91E6340" stroke-width="1.5"/><text x="272" y="349.5" font-size="11" font-weight="700" fill="#E91E63">🏠 Load</text><g transform="translate(264,335.5)"><path d="M 0 52.5 L 14 52.5" fill="none" stroke="#E91E63" stroke-width="1.5"/><path d="M 0 50 L 14 50" fill="none" stroke="#2196F3" stroke-width="1.5"/><path d="M 0 47.5 L 14 47.5" fill="none" stroke="#4CAF50" stroke-width="1.5"/></g><g transform="translate(264,335.5)"><path d="M 48 52.5 L 63 52.5" fill="none" stroke="#E91E63" stroke-width="1.5"/><path d="M 48 50 L 63 50" fill="none" stroke="#2196F3" stroke-width="1.5"/><path d="M 48 47.5 L 63 47.5" fill="none" stroke="#4CAF50" stroke-width="1.5"/></g><g><circle cx="451" cy="375.5" r="4" fill="none" stroke="#E91E63" stroke-width="2"/><circle cx="451" cy="385.5" r="4" fill="none" stroke="#2196F3" stroke-width="2"/><circle cx="451" cy="395.5" r="4" fill="none" stroke="#4CAF50" stroke-width="2"/><rect x="327" y="367.5" width="120" height="36" rx="6" fill="#E91E63" stroke="rgba(0,0,0,0.15)" stroke-width="1" opacity="0.85"/><text x="387" y="389.5" text-anchor="middle" font-size="11" font-weight="600" fill="white">Load</text></g><g><rect x="278" y="375.5" width="34" height="20" rx="10" fill="white" stroke="#bbb"/><text x="296" y="389.5" text-anchor="middle" font-size="12">⚡</text></g></g>
<g><rect x="825" y="263.66666666666663" width="197" height="82" rx="10" fill="#FFD60012" stroke="#FFD60040" stroke-width="1.5"/><text x="833" y="277.66666666666663" font-size="11" font-weight="700" fill="#FFD600">☀️ Solar</text><g transform="translate(825,263.66666666666663)"><path d="M 0 50 L 14 50" fill="none" stroke="#4CAF50" stroke-width="1.5"/></g><g transform="translate(825,263.66666666666663)"><path d="M 48 50 L 63 50" fill="none" stroke="#4CAF50" stroke-width="1.5"/></g><g><rect x="888" y="295.66666666666663" width="120" height="36" rx="6" fill="#FFD600" stroke="#4CAF50" stroke-width="3" opacity="0.85"/><text x="948" y="317.66666666666663" text-anchor="middle" font-size="11" font-weight="600" fill="white">Solar</text></g><g><rect x="839" y="303.66666666666663" width="34" height="20" rx="10" fill="white" stroke="#bbb"/><text x="857" y="317.66666666666663" text-anchor="middle" font-size="12">⚡</text></g></g>
<g><rect x="12" y="255.75" width="178" height="150.5" rx="10" fill="#90CAF912" stroke="#90CAF940" stroke-width="1.5"/><text x="20" y="269.75" font-size="11" font-weight="700" fill="#90CAF9">⚡ Switchboard</text><g transform="translate(12,255.75)"><path d="M 134 64.66666666666666 L 145.25 64.66666666666666 L 145.25 39.25 L 178 39.25" fill="none" stroke="#E91E63" stroke-width="1.5"/><path d="M 134 62.166666666666664 L 142.75 62.166666666666664 L 142.75 36.75 L 178 36.75" fill="none" stroke="#4CAF50" stroke-width="1.5"/></g><g transform="translate(12,255.75)"><path d="M 134 73.08333333333333 L 154 73.08333333333333 L 154 60 L 178 60" fill="none" stroke="#2196F3" stroke-width="1.5"/></g><g transform="translate(12,255.75)"><path d="M 134 85.25 L 178 85.25" fill="none" stroke="#E91E63" stroke-width="1.5"/><path d="M 134 82.75 L 178 82.75" fill="none" stroke="#2196F3" stroke-width="1.5"/><path d="M 134 80.25 L 178 80.25" fill="none" stroke="#4CAF50" stroke-width="1.5"/></g><g transform="translate(12,255.75)"><path d="M 134 94.91666666666666 L 151.5 94.91666666666666 L 151.5 108.75 L 178 108.75" fill="none" stroke="#E91E63" stroke-width="1.5"/><path d="M 134 92.41666666666666 L 154 92.41666666666666 L 154 106.25 L 178 106.25" fill="none" stroke="#2196F3" stroke-width="1.5"/><path d="M 134 89.91666666666666 L 156.5 89.91666666666666 L 156.5 103.75 L 178 103.75" fill="none" stroke="#4CAF50" stroke-width="1.5"/></g><g transform="translate(12,255.75)"><path d="M 134 104.58333333333333 L 141.5 104.58333333333333 L 141.5 132.25 L 178 132.25" fill="none" stroke="#E91E63" stroke-width="1.5"/><path d="M 134 102.08333333333333 L 144 102.08333333333333 L 144 129.75 L 178 129.75" fill="none" stroke="#2196F3" stroke-width="1.5"/><path d="M 134 99.58333333333333 L 146.5 99.58333333333333 L 146.5 127.25 L 178 127.25" fill="none" stroke="#4CAF50" stroke-width="1.5"/></g><g><rect x="26" y="309.5" width="120" height="58" rx="6" fill="#90CAF9" stroke="rgba(0,0,0,0.15)" stroke-width="1" opacity="0.85"/><text x="86" y="342.5" text-anchor="middle" font-size="11" font-weight="600" fill="white">Switchboard</text></g></g>
<g><path d="M 767 270.91666666666663 L 784.25 270.91666666666663 L 784.25 185.91666666666666 L 819 185.91666666666666" fill="none" stroke="#2196F3" stroke-width="1.5"/><path d="M 767 268.41666666666663 L 781.75 268.41666666666663 L 781.75 183.41666666666666 L 819 183.41666666666666" fill="none" stroke="#4CAF50" stroke-width="1.5"/><polygon points="816,184.66666666666666 806,189.66666666666666 806,179.66666666666666" fill="#888" stroke="white" stroke-width="1" stroke-linejoin="round"/></g>
<g><path d="M 767 291.66666666666663 L 793 291.66666666666663 L 793 214.66666666666666 L 819 214.66666666666666" fill="none" stroke="#E91E63" stroke-width="1.5"/><polygon points="770,291.66666666666663 780,286.66666666666663 780,296.66666666666663" fill="#888" stroke="white" stroke-width="1" stroke-linejoin="round"/></g>
<g><path d="M 196 315.75 L 222 315.75 L 222 178 L 507 178" fill="none" stroke="#2196F3" stroke-width="1.5"/><polygon points="199,315.75 209,310.75 209,320.75" fill="#888" stroke="white" stroke-width="1" stroke-linejoin="round"/></g>
<g><path d="M 196 341 L 234.5 341 L 234.5 280 L 473.5 280 L 473.5 271.5 L 507 271.5" fill="none" stroke="#E91E63" stroke-width="1.5"/><path d="M 196 338.5 L 232 338.5 L 232 277.5 L 471 277.5 L 471 269 L 507 269" fill="none" stroke="#2196F3" stroke-width="1.5"/><path d="M 196 336 L 229.5 336 L 229.5 275 L 468.5 275 L 468.5 266.5 L 507 266.5" fill="none" stroke="#4CAF50" stroke-width="1.5"/><polygon points="504,269 494,274 494,264" fill="#888" stroke="white" stroke-width="1" stroke-linejoin="round"/></g>
<g><path d="M 196 388 L 258 388" fill="none" stroke="#E91E63" stroke-width="1.5"/><path d="M 196 385.5 L 258 385.5" fill="none" stroke="#2196F3" stroke-width="1.5"/><path d="M 196 383 L 258 383" fill="none" stroke="#4CAF50" stroke-width="1.5"/><polygon points="255,385.5 245,390.5 245,380.5" fill="#888" stroke="white" stroke-width="1" stroke-linejoin="round"/></g>
<g><path d="M 767 313.66666666666663 L 819 313.66666666666663" fill="none" stroke="#4CAF50" stroke-width="1.5"/><polygon points="770,313.66666666666663 780,308.66666666666663 780,318.66666666666663" fill="#888" stroke="white" stroke-width="1" stroke-linejoin="round"/></g>
<g><path d="M 196 295 L 213.25 295 L 213.25 157.25 L 392.5 157.25 L 472.25 157.25 L 472.25 149.25 L 507 149.25" fill="none" stroke="#E91E63" stroke-width="1.5"/><path d="M 196 292.5 L 210.75 292.5 L 210.75 154.75 L 392.5 154.75 L 469.75 154.75 L 469.75 146.75 L 507 146.75" fill="none" stroke="#4CAF50" stroke-width="1.5"/><polygon points="504,148 494,153 494,143" fill="#888" stroke="white" stroke-width="1" stroke-linejoin="round"/></g>
<g><path d="M 196 364.5 L 244.5 364.5 L 244.5 303 L 376.5 303 L 507 303" fill="none" stroke="#E91E63" stroke-width="1.5"/><path d="M 196 362 L 242 362 L 242 300.5 L 376.5 300.5 L 507 300.5" fill="none" stroke="#2196F3" stroke-width="1.5"/><path d="M 196 359.5 L 239.5 359.5 L 239.5 298 L 376.5 298 L 507 298" fill="none" stroke="#4CAF50" stroke-width="1.5"/><polygon points="199,362 209,357 209,367" fill="#888" stroke="white" stroke-width="1" stroke-linejoin="round"/></g>
<circle cx="819" cy="184.66666666666666" r="5" fill="#888"/>
<circle cx="819" cy="214.66666666666666" r="5" fill="#888"/>
<circle cx="507" cy="148" r="5" fill="#888"/>
<circle cx="507" cy="178" r="5" fill="#888"/>
<circle cx="767" cy="269.66666666666663" r="5" fill="#888"/>
<circle cx="767" cy="291.66666666666663" r="5" fill="#888"/>
<circle cx="767" cy="313.66666666666663" r="5" fill="#888"/>
<circle cx="507" cy="269" r="5" fill="#888"/>
<circle cx="507" cy="300.5" r="5" fill="#888"/>
<circle cx="258" cy="385.5" r="5" fill="#888"/>
<circle cx="819" cy="313.66666666666663" r="5" fill="#888"/>
<circle cx="196" cy="293.75" r="5" fill="#888"/>
<circle cx="196" cy="315.75" r="5" fill="#888"/>
<circle cx="196" cy="338.5" r="5" fill="#888"/>
<circle cx="196" cy="362" r="5" fill="#888"/>
<circle cx="196" cy="385.5" r="5" fill="#888"/>
<g><rect x="320.5" y="146" width="72" height="20" rx="10" fill="white" stroke="#aaa" stroke-width="1.5"/><text x="340.5" y="160" text-anchor="middle" font-size="10" font-weight="700" fill="#E91E63">💲v1</text><line x1="356.5" y1="149" x2="356.5" y2="163" stroke="#ddd"/><text x="372.5" y="160" text-anchor="middle" font-size="10" font-weight="700" fill="#4CAF50">💲v3</text></g>
<g><rect x="336.5" y="290.5" width="40" height="20" rx="10" fill="white" stroke="#aaa" stroke-width="1.5"/><text x="356.5" y="304.5" text-anchor="middle" font-size="10" font-weight="700" fill="#E91E63">💲v1</text></g>
<g><rect x="12" y="12" width="90" height="72" rx="6" fill="rgba(30,30,30,0.9)" stroke="#555"/><text x="20" y="26" font-size="11" font-weight="700" fill="#eee">VLANs</text><rect x="20" y="34" width="16" height="3" rx="1" fill="#E91E63"/><text x="42" y="38" font-size="10" fill="#ccc">VLAN 1</text><rect x="20" y="50" width="16" height="3" rx="1" fill="#2196F3"/><text x="42" y="54" font-size="10" fill="#ccc">VLAN 2</text><rect x="20" y="66" width="16" height="3" rx="1" fill="#4CAF50"/><text x="42" y="70" font-size="10" fill="#ccc">VLAN 3</text></g>
</svg>
