<?xml version="1.0" encoding="UTF-8"?>
<svg xmlns="http://www.w3.org/2000/svg" viewBox="0 0 836 452.125" width="836" height="452.125">
<defs>
<marker id="arrow" markerWidth="8" markerHeight="6" refX="8" refY="3" orient="auto"><polygon points="0 0, 8 3, 0 6" fill="#888"/></marker>
<marker id="arrow-rev" markerWidth="8" markerHeight="6" refX="0" refY="3" orient="auto"><polygon points="8 0, 0 3, 8 6" fill="#888"/></marker>
</defs>
<g><rect x="576" y="215.125" width="228" height="98" rx="10" fill="#4CAF5012" stroke="#4CAF5040" stroke-width="1.5"/><text x="584" y="229.125" font-size="11" font-weight="700" fill="#4CAF50">🔋 Battery</text><g transform="translate(576,215.125)"><path d="M 0 44 L 14 44" fill="none" stroke="#E91E63" stroke-width="1.5"/></g><g transform="translate(576,215.125)"><path d="M 74 44 L 94 44" fill="none" stroke="#E91E63" stroke-width="1.5"/></g><g transform="translate(576,215.125)"><path d="M 0 74 L 14 74" fill="none" stroke="#E91E63" stroke-width="1.5"/></g><g transform="translate(576,215.125)"><path d="M 74 74 L 84 74 L 84 56 L 94 56" fill="none" stroke="#E91E63" stroke-width="1.5"/></g><g><circle cx="794" cy="255.125" r="4" fill="none" stroke="#E91E63" stroke-width="2"/><rect x="670" y="247.125" width="120" height="36" rx="6" fill="#4CAF50" stroke="#E91E63" stroke-width="3" opacity="0.85"/><text x="730" y="269.125" text-anchor="middle" font-size="11" font-weight="600" fill="white">Battery</text></g><g><rect x="590" y="249.125" width="60" height="20" rx="10" fill="white" stroke="#bbb"/><text x="608" y="263.125" text-anchor="middle" font-size="12">η</text><line x1="622" y1="252.125" x2="622" y2="266.125" stroke="#ddd"/><text x="636" y="263.125" text-anchor="middle" font-size="12">⚡</text></g><g><rect x="590" y="279.125" width="60" height="20" rx="10" fill="white" stroke="#bbb"/><text x="608" y="293.125" text-anchor="middle" font-size="12">⚡</text><line x1="622" y1="282.125" x2="622" y2="296.125" stroke="#ddd"/><text x="636" y="293.125" text-anchor="middle" font-size="12">η</text></g></g>
<g><rect x="254" y="72" width="197" height="82" rx="10" fill="#E91E6312" stroke="#E91E6340" stroke-width="1.5"/><text x="262" y="86" font-size="11" font-weight="700" fill="#E91E63">🏠 Constant Load</text><g transform="translate(254,72)"><path d="M 0 50 L 14 50" fill="none" stroke="#E91E63" stroke-width="1.5"/></g><g transform="translate(254,72)"><path d="M 48 50 L 63 50" fill="none" stroke="#E91E63" stroke-width="1.5"/></g><g><circle cx="441" cy="112" r="4" fill="none" stroke="#E91E63" stroke-width="2"/><rect x="317" y="104" width="120" height="36" rx="6" fill="#E91E63" stroke="rgba(0,0,0,0.15)" stroke-width="1" opacity="0.85"/><text x="377" y="126" text-anchor="middle" font-size="11" font-weight="600" fill="white">Constant Load</text></g><g><rect x="268" y="112" width="34" height="20" rx="10" fill="white" stroke="#bbb"/><text x="286" y="126" text-anchor="middle" font-size="12">⚡</text></g></g>
<g><rect x="254" y="179" width="228" height="98" rx="10" fill="#FF980012" stroke="#FF980040" stroke-width="1.5"/><text x="262" y="193" font-size="11" font-weight="700" fill="#FF9800">🏭 Grid</text><g transform="translate(254,179)"><path d="M 0 44 L 14 44" fill="none" stroke="#E91E63" stroke-width="1.5"/></g><g transform="translate(254,179)"><path d="M 74 44 L 94 44" fill="none" stroke="#E91E63" stroke-width="1.5"/></g><g transform="translate(254,179)"><path d="M 0 74 L 14 74" fill="none" stroke="#E91E63" stroke-width="1.5"/></g><g transform="translate(254,179)"><path d="M 74 74 L 84 74 L 84 56 L 94 56" fill="none" stroke="#E91E63" stroke-width="1.5"/></g><g><circle cx="472" cy="219" r="4" fill="none" stroke="#E91E63" stroke-width="2"/><rect x="348" y="211" width="120" height="36" rx="6" fill="#FF9800" stroke="#E91E63" stroke-width="3" opacity="0.85"/><text x="408" y="233" text-anchor="middle" font-size="11" font-weight="600" fill="white">Grid</text></g><g><rect x="268" y="213" width="60" height="20" rx="10" fill="white" stroke="#bbb"/><text x="286" y="227" text-anchor="middle" font-size="12">⚡</text><line x1="300" y1="216" x2="300" y2="230" stroke="#ddd"/><text x="314" y="227" text-anchor="middle" font-size="12">💲</text></g><g><rect x="268" y="243" width="60" height="20" rx="10" fill="white" stroke="#bbb"/><text x="286" y="257" text-anchor="middle" font-size="12">💲</text><line x1="300" y1="246" x2="300" y2="260" stroke="#ddd"/><text x="314" y="257" text-anchor="middle" font-size="12">⚡</text></g></g>
<g><rect x="254" y="302" width="258" height="106.125" rx="10" fill="#9C27B012" stroke="#9C27B040" stroke-width="1.5"/><text x="262" y="316" font-size="11" font-weight="700" fill="#9C27B0">🔄 Inverter</text><g transform="translate(254,302)"><path d="M 214 42.125 L 258 42.125" fill="none" stroke="#E91E63" stroke-width="1.5"/></g><g transform="translate(254,302)"><path d="M 214 52.25 L 234 52.25 L 234 64.125 L 258 64.125" fill="none" stroke="#E91E63" stroke-width="1.5"/></g><g transform="translate(254,302)"><path d="M 0 45.5 L 14 45.5" fill="none" stroke="#E91E63" stroke-width="1.5"/></g><g transform="translate(254,302)"><path d="M 74 45.5 L 94 45.5" fill="none" stroke="#E91E63" stroke-width="1.5"/></g><g transform="translate(254,302)"><path d="M 0 75.5 L 14 75.5" fill="none" stroke="#E91E63" stroke-width="1.5"/></g><g transform="translate(254,302)"><path d="M 74 75.5 L 84 75.5 L 84 59 L 94 59" fill="none" stroke="#E91E63" stroke-width="1.5"/></g><g transform="translate(254,302)"><path d="M 214 62.375 L 224 62.375 L 224 86.125 L 258 86.125" fill="none" stroke="#E91E63" stroke-width="1.5"/></g><g><rect x="348" y="334" width="120" height="40.5" rx="6" fill="#9C27B0" stroke="rgba(0,0,0,0.15)" stroke-width="1" opacity="0.85"/><text x="408" y="358.25" text-anchor="middle" font-size="11" font-weight="600" fill="white">Inverter</text></g><g><rect x="268" y="337.5" width="60" height="20" rx="10" fill="white" stroke="#bbb"/><text x="286" y="351.5" text-anchor="middle" font-size="12">η</text><line x1="300" y1="340.5" x2="300" y2="354.5" stroke="#ddd"/><text x="314" y="351.5" text-anchor="middle" font-size="12">⚡</text></g><g><rect x="268" y="367.5" width="60" height="20" rx="10" fill="white" stroke="#bbb"/><text x="286" y="381.5" text-anchor="middle" font-size="12">⚡</text><line x1="300" y1="370.5" x2="300" y2="384.5" stroke="#ddd"/><text x="314" y="381.5" text-anchor="middle" font-size="12">η</text></g></g>
<g><rect x="576" y="338.125" width="197" height="82" rx="10" fill="#FFD60012" stroke="#FFD60040" stroke-width="1.5"/><text x="584" y="352.125" font-size="11" font-weight="700" fill="#FFD600">☀️ Solar</text><g transform="translate(576,338.125)"><path d="M 0 50 L 14 50" fill="none" stroke="#E91E63" stroke-width="1.5"/></g><g transform="translate(576,338.125)"><path d="M 48 50 L 63 50" fill="none" stroke="#E91E63" stroke-width="1.5"/></g><g><rect x="639" y="370.125" width="120" height="36" rx="6" fill="#FFD600" stroke="#E91E63" stroke-width="3" opacity="0.85"/><text x="699" y="392.125" text-anchor="middle" font-size="11" font-weight="600" fill="white">Solar</text></g><g><rect x="590" y="378.125" width="34" height="20" rx="10" fill="white" stroke="#bbb"/><text x="608" y="392.125" text-anchor="middle" font-size="12">⚡</text></g></g>
<g><rect x="12" y="243.5" width="178" height="146" rx="10" fill="#90CAF912" stroke="#90CAF940" stroke-width="1.5"/><text x="20" y="257.5" font-size="11" font-weight="700" fill="#90CAF9">⚡ Switchboard</text><g transform="translate(12,243.5)"><path d="M 134 68.5 L 144 68.5 L 144 38 L 178 38" fill="none" stroke="#E91E63" stroke-width="1.5"/></g><g transform="translate(12,243.5)"><path d="M 134 75.25 L 154 75.25 L 154 60 L 178 60" fill="none" stroke="#E91E63" stroke-width="1.5"/></g><g transform="translate(12,243.5)"><path d="M 134 82 L 178 82" fill="none" stroke="#E91E63" stroke-width="1.5"/></g><g transform="translate(12,243.5)"><path d="M 134 88.75 L 154 88.75 L 154 104 L 178 104" fill="none" stroke="#E91E63" stroke-width="1.5"/></g><g transform="translate(12,243.5)"><path d="M 134 95.5 L 144 95.5 L 144 126 L 178 126" fill="none" stroke="#E91E63" stroke-width="1.5"/></g><g><rect x="26" y="305.25" width="120" height="40.5" rx="6" fill="#90CAF9" stroke="rgba(0,0,0,0.15)" stroke-width="1" opacity="0.85"/><text x="86" y="329.5" text-anchor="middle" font-size="11" font-weight="600" fill="white">Switchboard</text></g></g>
<g><path d="M 518 344.125 L 534 344.125 L 534 259.125 L 570 259.125" fill="none" stroke="#E91E63" stroke-width="1.5"/><polygon points="567,259.125 557,264.125 557,254.125" fill="#888" stroke="white" stroke-width="1" stroke-linejoin="round"/></g>
<g><path d="M 518 366.125 L 544 366.125 L 544 289.125 L 570 289.125" fill="none" stroke="#E91E63" stroke-width="1.5"/><polygon points="521,366.125 531,361.125 531,371.125" fill="#888" stroke="white" stroke-width="1" stroke-linejoin="round"/></g>
<g><path d="M 196 281.5 L 212 281.5 L 212 122 L 248 122" fill="none" stroke="#E91E63" stroke-width="1.5"/><polygon points="245,122 235,127 235,117" fill="#888" stroke="white" stroke-width="1" stroke-linejoin="round"/></g>
<g><path d="M 196 303.5 L 222 303.5 L 222 223 L 248 223" fill="none" stroke="#E91E63" stroke-width="1.5"/><polygon points="245,223 235,228 235,218" fill="#888" stroke="white" stroke-width="1" stroke-linejoin="round"/></g>
<g><path d="M 196 325.5 L 232 325.5 L 232 253 L 248 253" fill="none" stroke="#E91E63" stroke-width="1.5"/><polygon points="199,325.5 209,320.5 209,330.5" fill="#888" stroke="white" stroke-width="1" stroke-linejoin="round"/></g>
<g><path d="M 196 347.5 L 248 347.5" fill="none" stroke="#E91E63" stroke-width="1.5"/><polygon points="245,347.5 235,352.5 235,342.5" fill="#888" stroke="white" stroke-width="1" stroke-linejoin="round"/></g>
<g><path d="M 196 369.5 L 212 369.5 L 212 377.5 L 248 377.5" fill="none" stroke="#E91E63" stroke-width="1.5"/><polygon points="199,369.5 209,364.5 209,374.5" fill="#888" stroke="white" stroke-width="1" stroke-linejoin="round"/></g>
<g><path d="M 518 388.125 L 570 388.125" fill="none" stroke="#E91E63" stroke-width="1.5"/><polygon points="521,388.125 531,383.125 531,393.125" fill="#888" stroke="white" stroke-width="1" stroke-linejoin="round"/></g>
<circle cx="570" cy="259.125" r="5" fill="#888"/>
<circle cx="570" cy="289.125" r="5" fill="#888"/>
<circle cx="248" cy="122" r="5" fill="#888"/>
<circle cx="248" cy="223" r="5" fill="#888"/>
<circle cx="248" cy="253" r="5" fill="#888"/>
<circle cx="518" cy="344.125" r="5" fill="#888"/>
<circle cx="518" cy="366.125" r="5" fill="#888"/>
<circle cx="518" cy="388.125" r="5" fill="#888"/>
<circle cx="248" cy="347.5" r="5" fill="#888"/>
<circle cx="248" cy="377.5" r="5" fill="#888"/>
<circle cx="570" cy="388.125" r="5" fill="#888"/>
<circle cx="196" cy="281.5" r="5" fill="#888"/>
<circle cx="196" cy="303.5" r="5" fill="#888"/>
<circle cx="196" cy="325.5" r="5" fill="#888"/>
<circle cx="196" cy="347.5" r="5" fill="#888"/>
<circle cx="196" cy="369.5" r="5" fill="#888"/>
<g><rect x="12" y="12" width="90" height="40" rx="6" fill="rgba(30,30,30,0.9)" stroke="#555"/><text x="20" y="26" font-size="11" font-weight="700" fill="#eee">VLANs</text><rect x="20" y="34" width="16" height="3" rx="1" fill="#E91E63"/><text x="42" y="38" font-size="10" fill="#ccc">VLAN 1</text></g>
</svg>
